# Blender v2.93.1 OBJ File: 'Шасси шпинделя.blend'
# www.blender.org
mtllib Шасси шпинделя.mtl
o Шасси_шпинделя_Cube.008
v -0.250000 0.930000 -0.405000
v -0.250000 1.330000 -0.405000
v -0.250000 0.930000 -0.655000
v -0.250000 1.330000 -0.655000
v 0.250000 0.930000 -0.405000
v 0.250000 1.330000 -0.405000
v 0.250000 0.930000 -0.655000
v 0.250000 1.330000 -0.655000
v 0.150000 0.930000 -0.655000
v 0.150000 1.330000 -0.655000
v 0.150000 0.930000 -0.405000
v 0.150000 1.330000 -0.405000
v -0.150000 0.930000 -0.655000
v -0.150000 1.330000 -0.405000
v -0.150000 1.330000 -0.655000
v -0.150000 0.930000 -0.405000
v -0.250000 1.330000 -0.700000
v -0.250000 0.930000 -0.700000
v -0.150000 0.930000 -0.700000
v -0.150000 1.330000 -0.700000
v 0.150000 1.330000 -0.700000
v 0.250000 1.330000 -0.700000
v 0.250000 0.930000 -0.700000
v 0.150000 0.930000 -0.700000
v -0.050000 0.945000 -0.300000
v -0.050000 1.195000 -0.300000
v 0.050000 0.945000 -0.300000
v 0.050000 1.195000 -0.300000
v -0.050000 1.269773 -0.399154
v -0.050000 1.019773 -0.399154
v 0.050000 1.019773 -0.399154
v 0.050000 1.269773 -0.399154
v -0.050000 1.269773 -0.405000
v 0.050000 1.269773 -0.405000
v -0.050000 1.019773 -0.405000
v 0.050000 1.019773 -0.405000
v -0.150000 0.905000 0.150000
v -0.150000 1.255000 0.150000
v -0.150000 0.905000 -0.150000
v -0.150000 1.255000 -0.150000
v 0.150000 0.905000 0.150000
v 0.150000 1.255000 0.150000
v 0.150000 0.905000 -0.150000
v 0.150000 1.255000 -0.150000
v -0.050000 1.195000 -0.150000
v -0.050000 0.945000 -0.150000
v 0.050000 1.195000 -0.150000
v 0.050000 0.945000 -0.150000
v -0.100000 1.550000 0.100000
v -0.100000 1.550000 -0.100000
v 0.100000 1.550000 0.100000
v 0.100000 1.550000 -0.100000
v 0.100000 1.255000 -0.100000
v -0.100000 1.255000 -0.100000
v -0.100000 1.255000 0.100000
v 0.100000 1.255000 0.100000
v 0.040000 1.410000 0.100000
v 0.040000 1.410000 0.160000
v -0.040000 1.410000 0.100000
v -0.040000 1.410000 0.160000
v 0.040000 1.510000 0.100000
v 0.040000 1.510000 0.160000
v -0.040000 1.510000 0.100000
v -0.040000 1.510000 0.160000
vt 0.375000 0.000000
vt 0.625000 0.000000
vt 0.625000 0.250000
vt 0.375000 0.250000
vt 0.625000 0.500000
vt 0.625000 0.500000
vt 0.625000 0.500000
vt 0.625000 0.500000
vt 0.375000 0.500000
vt 0.625000 0.750000
vt 0.375000 0.750000
vt 0.375000 0.958689
vt 0.625000 0.958689
vt 0.625000 1.000000
vt 0.375000 1.000000
vt 0.375000 0.500000
vt 0.375000 0.750000
vt 0.833689 0.500000
vt 0.875000 0.500000
vt 0.875000 0.750000
vt 0.833689 0.750000
vt 0.625000 0.750000
vt 0.166311 0.500000
vt 0.166311 0.750000
vt 0.375000 0.291311
vt 0.625000 0.291311
vt 0.625000 0.250000
vt 0.375000 0.250000
vt 0.125000 0.500000
vt 0.125000 0.750000
vt 0.431108 0.889126
vt 0.587358 0.889126
vt 0.587358 0.819563
vt 0.431108 0.819563
vt 0.625000 0.291311
vt 0.375000 0.291311
vt 0.125000 0.500000
vt 0.166311 0.500000
vt 0.833689 0.500000
vt 0.875000 0.500000
vt 0.375000 0.500000
vt 0.375000 0.500000
vt 0.625000 0.000000
vt 0.625000 0.250000
vt 0.375000 0.250000
vt 0.375000 0.000000
vt 0.625000 0.250000
vt 0.375000 0.250000
vt 0.375000 0.500000
vt 0.625000 0.500000
vt 0.625000 0.750000
vt 0.375000 0.750000
vt 0.125000 0.750000
vt 0.125000 0.500000
vt 0.875000 0.500000
vt 0.875000 0.750000
vt 0.875000 0.500000
vt 0.875000 0.500000
vt 0.625000 0.500000
vt 0.625000 0.500000
vt 0.375000 0.500000
vt 0.125000 0.500000
vt 0.625000 0.250000
vt 0.375000 0.250000
vt 0.375000 0.500000
vt 0.125000 0.500000
vt 0.375000 0.000000
vt 0.625000 0.000000
vt 0.625000 0.250000
vt 0.375000 0.250000
vt 0.403571 0.333333
vt 0.625000 0.500000
vt 0.375000 0.500000
vt 0.403571 0.416667
vt 0.582143 0.416667
vt 0.582143 0.333333
vt 0.625000 0.750000
vt 0.375000 0.750000
vt 0.625000 1.000000
vt 0.375000 1.000000
vt 0.125000 0.500000
vt 0.125000 0.750000
vt 0.833333 0.708333
vt 0.875000 0.750000
vt 0.666667 0.708333
vt 0.666667 0.541667
vt 0.875000 0.500000
vt 0.833333 0.541667
vt 0.625000 0.000000
vt 0.625000 0.250000
vt 0.379167 0.250000
vt 0.379167 0.000000
vt 0.625000 0.500000
vt 0.379167 0.500000
vt 0.625000 0.750000
vt 0.379167 0.750000
vt 0.591667 0.925000
vt 0.625000 1.000000
vt 0.379167 1.000000
vt 0.591667 0.825000
vt 0.508333 0.825000
vt 0.508333 0.925000
vt 0.875000 0.500000
vt 0.875000 0.750000
vt 0.375000 0.000000
vt 0.625000 0.000000
vt 0.625000 0.250000
vt 0.375000 0.250000
vt 0.625000 0.500000
vt 0.375000 0.500000
vt 0.625000 0.750000
vt 0.375000 0.750000
vt 0.625000 1.000000
vt 0.375000 1.000000
vt 0.875000 0.500000
vt 0.875000 0.750000
vn -1.0000 0.0000 0.0000
vn 0.0000 1.0000 0.0000
vn 1.0000 0.0000 0.0000
vn 0.0000 0.0000 1.0000
vn 0.0000 -1.0000 0.0000
vn 0.0000 0.0000 -1.0000
vn 0.0000 -0.7984 -0.6021
vn 0.0000 0.7984 0.6021
usemtl None
s off
f 1/1/1 2/2/1 4/3/1 3/4/1
f 10/5/2 8/6/2 22/7/2 21/8/2
f 7/9/3 8/6/3 6/10/3 5/11/3
f 16/12/4 14/13/4 2/14/4 1/15/4
f 9/16/5 7/9/5 5/11/5 11/17/5
f 15/18/2 4/19/2 2/20/2 14/21/2
f 8/6/2 10/5/2 12/22/2 6/10/2
f 13/23/5 9/16/5 11/17/5 16/24/5
f 5/11/4 6/10/4 12/22/4 11/17/4
f 13/25/6 15/26/6 10/5/6 9/16/6
f 3/4/1 4/3/1 17/27/1 18/28/1
f 3/29/5 13/23/5 16/24/5 1/30/5
f 10/5/2 15/18/2 14/21/2 12/22/2
f 35/31/4 33/32/4 14/13/4 16/12/4 11/17/4 12/22/4 34/33/4 36/34/4
f 34/33/4 12/22/4 14/13/4 33/32/4
f 18/28/6 17/27/6 20/35/6 19/36/6
f 13/23/5 3/29/5 18/37/5 19/38/5
f 15/26/3 13/25/3 19/36/3 20/35/3
f 4/19/2 15/18/2 20/39/2 17/40/2
f 24/41/6 21/8/6 22/7/6 23/42/6
f 7/9/5 9/16/5 24/41/5 23/42/5
f 9/16/1 10/5/1 21/8/1 24/41/1
f 8/6/3 7/9/3 23/42/3 22/7/3
f 45/43/1 26/44/1 25/45/1 46/46/1
f 25/45/1 26/44/1 29/47/1 30/48/1
f 27/49/3 28/50/3 47/51/3 48/52/3
f 46/53/5 25/54/5 27/49/5 48/52/5
f 47/51/2 28/50/2 26/55/2 45/56/2
f 33/57/2 29/58/2 32/59/2 34/60/2
f 28/50/3 27/49/3 31/61/3 32/59/3
f 27/49/7 25/54/7 30/62/7 31/61/7
f 26/55/8 28/50/8 32/59/8 29/58/8
f 30/48/1 29/47/1 33/63/1 35/64/1
f 32/59/3 31/61/3 36/65/3 34/60/3
f 31/61/5 30/62/5 35/66/5 36/65/5
f 37/67/1 38/68/1 40/69/1 39/70/1
f 46/71/6 39/70/6 40/69/6 44/72/6 43/73/6 48/74/6 47/75/6 45/76/6
f 48/74/6 43/73/6 39/70/6 46/71/6
f 43/73/3 44/72/3 42/77/3 41/78/3
f 41/78/4 42/77/4 38/79/4 37/80/4
f 39/81/5 43/73/5 41/78/5 37/82/5
f 55/83/2 38/84/2 42/77/2 56/85/2
f 53/86/2 56/85/2 42/77/2 44/72/2 40/87/2 38/84/2 55/83/2 54/88/2
f 49/89/1 50/90/1 54/91/1 55/92/1
f 54/91/6 50/90/6 52/93/6 53/94/6
f 53/94/3 52/93/3 51/95/3 56/96/3
f 63/97/4 49/98/4 55/99/4 56/96/4 51/95/4 61/100/4 57/101/4 59/102/4
f 61/100/4 51/95/4 49/98/4 63/97/4
f 52/93/2 50/103/2 49/104/2 51/95/2
f 57/105/5 58/106/5 60/107/5 59/108/5
f 64/109/1 63/110/1 59/108/1 60/107/1
f 63/110/2 64/109/2 62/111/2 61/112/2
f 61/112/3 62/111/3 58/113/3 57/114/3
f 64/109/4 60/115/4 58/116/4 62/111/4
