# Blender v2.93.1 OBJ File: 'Шпиндель.blend'
# www.blender.org
mtllib Шпиндель.mtl
o Шпиндель_Cylinder
v 0.000000 0.710000 -0.100000
v 0.019509 0.710000 -0.098079
v 0.038268 0.710000 -0.092388
v 0.055557 0.710000 -0.083147
v 0.070711 0.710000 -0.070711
v 0.083147 0.710000 -0.055557
v 0.092388 0.710000 -0.038268
v 0.098079 0.710000 -0.019509
v 0.100000 0.710000 0.000000
v 0.098079 0.710000 0.019509
v 0.092388 0.710000 0.038268
v 0.083147 0.710000 0.055557
v 0.070711 0.710000 0.070711
v 0.055557 0.710000 0.083147
v 0.038268 0.710000 0.092388
v 0.019509 0.710000 0.098079
v -0.000000 0.710000 0.100000
v -0.019509 0.710000 0.098079
v -0.038268 0.710000 0.092388
v -0.055557 0.710000 0.083147
v -0.070711 0.710000 0.070711
v -0.083147 0.710000 0.055557
v -0.092388 0.710000 0.038268
v -0.098079 0.710000 0.019509
v -0.100000 0.710000 -0.000000
v -0.098079 0.710000 -0.019509
v -0.092388 0.710000 -0.038268
v -0.083147 0.710000 -0.055557
v -0.070711 0.710000 -0.070711
v -0.055557 0.710000 -0.083147
v -0.038268 0.710000 -0.092388
v -0.019509 0.710000 -0.098079
v -0.250000 0.930000 -0.405000
v -0.250000 1.330000 -0.405000
v -0.250000 0.930000 -0.655000
v -0.250000 1.330000 -0.655000
v 0.250000 0.930000 -0.405000
v 0.250000 1.330000 -0.405000
v 0.250000 0.930000 -0.655000
v 0.250000 1.330000 -0.655000
v 0.150000 0.930000 -0.655000
v 0.150000 1.330000 -0.655000
v 0.150000 0.930000 -0.405000
v 0.150000 1.330000 -0.405000
v -0.150000 0.930000 -0.655000
v -0.150000 1.330000 -0.405000
v -0.150000 1.330000 -0.655000
v -0.150000 0.930000 -0.405000
v -0.250000 1.330000 -0.700000
v -0.250000 0.930000 -0.700000
v -0.150000 0.930000 -0.700000
v -0.150000 1.330000 -0.700000
v 0.150000 1.330000 -0.700000
v 0.250000 1.330000 -0.700000
v 0.250000 0.930000 -0.700000
v 0.150000 0.930000 -0.700000
v -0.050000 0.945000 -0.300000
v -0.050000 1.195000 -0.300000
v 0.050000 0.945000 -0.300000
v 0.050000 1.195000 -0.300000
v -0.050000 1.269773 -0.399154
v -0.050000 1.019773 -0.399154
v 0.050000 1.019773 -0.399154
v 0.050000 1.269773 -0.399154
v -0.050000 1.269773 -0.405000
v 0.050000 1.269773 -0.405000
v -0.050000 1.019773 -0.405000
v 0.050000 1.019773 -0.405000
v -0.150000 0.905000 0.150000
v -0.150000 1.255000 0.150000
v -0.150000 0.905000 -0.150000
v -0.150000 1.255000 -0.150000
v 0.150000 0.905000 0.150000
v 0.150000 1.255000 0.150000
v 0.150000 0.905000 -0.150000
v 0.150000 1.255000 -0.150000
v -0.050000 1.195000 -0.150000
v -0.050000 0.945000 -0.150000
v 0.050000 1.195000 -0.150000
v 0.050000 0.945000 -0.150000
v 0.000000 0.905000 -0.100000
v 0.019509 0.905000 -0.098079
v -0.019509 0.905000 0.098079
v 0.038268 0.905000 -0.092388
v -0.038268 0.905000 0.092388
v 0.055557 0.905000 -0.083147
v -0.055557 0.905000 0.083147
v 0.070711 0.905000 -0.070711
v -0.070711 0.905000 0.070711
v 0.083147 0.905000 -0.055557
v -0.083147 0.905000 0.055557
v 0.092388 0.905000 -0.038268
v -0.092388 0.905000 0.038268
v 0.098079 0.905000 -0.019509
v -0.098079 0.905000 0.019509
v 0.100000 0.905000 0.000000
v -0.100000 0.905000 -0.000000
v 0.098079 0.905000 0.019509
v -0.098079 0.905000 -0.019509
v 0.092388 0.905000 0.038268
v -0.092388 0.905000 -0.038268
v 0.083147 0.905000 0.055557
v 0.071022 0.905000 0.070332
v -0.083147 0.905000 -0.055557
v 0.070711 0.905000 0.070711
v -0.071022 0.905000 -0.070332
v -0.070711 0.905000 -0.070711
v 0.055557 0.905000 0.083147
v -0.055557 0.905000 -0.083147
v 0.038268 0.905000 0.092388
v 0.019509 0.905000 0.098079
v -0.038268 0.905000 -0.092388
v -0.000000 0.905000 0.100000
v -0.019509 0.905000 -0.098079
vt 0.968750 0.500000
vt 1.000000 0.500000
vt 1.000000 0.987500
vt 0.968750 0.987500
vt 0.937500 0.500000
vt 0.937500 0.987500
vt 0.906250 0.500000
vt 0.906250 0.987500
vt 0.875000 0.500000
vt 0.875000 0.987500
vt 0.843750 0.987500
vt 0.843750 0.500000
vt 0.812500 0.987500
vt 0.812500 0.500000
vt 0.781250 0.987500
vt 0.781250 0.500000
vt 0.750000 0.987500
vt 0.750000 0.500000
vt 0.718750 0.987500
vt 0.718750 0.500000
vt 0.687500 0.987500
vt 0.687500 0.500000
vt 0.656250 0.987500
vt 0.656250 0.500000
vt 0.625000 0.987500
vt 0.625000 0.500000
vt 0.625781 0.987500
vt 0.593750 0.987500
vt 0.593750 0.500000
vt 0.562500 0.987500
vt 0.562500 0.500000
vt 0.531250 0.987500
vt 0.531250 0.500000
vt 0.500000 0.987500
vt 0.500000 0.500000
vt 0.468750 0.987500
vt 0.468750 0.500000
vt 0.437500 0.987500
vt 0.437500 0.500000
vt 0.406250 0.987500
vt 0.406250 0.500000
vt 0.375000 0.987500
vt 0.375000 0.500000
vt 0.343750 0.500000
vt 0.343750 0.987500
vt 0.312500 0.500000
vt 0.312500 0.987500
vt 0.281250 0.500000
vt 0.281250 0.987500
vt 0.250000 0.500000
vt 0.250000 0.987500
vt 0.218750 0.500000
vt 0.218750 0.987500
vt 0.187500 0.500000
vt 0.187500 0.987500
vt 0.156250 0.500000
vt 0.156250 0.987500
vt 0.125000 0.500000
vt 0.125781 0.987500
vt 0.125000 0.987500
vt 0.093750 0.500000
vt 0.093750 0.987500
vt 0.062500 0.500000
vt 0.062500 0.987500
vt 0.031250 0.500000
vt 0.031250 0.987500
vt 0.000000 0.500000
vt 0.000000 0.987500
vt 0.703178 0.485388
vt 0.750000 0.490000
vt 0.796822 0.485388
vt 0.841844 0.471731
vt 0.883337 0.449553
vt 0.919706 0.419706
vt 0.949553 0.383337
vt 0.971731 0.341844
vt 0.985388 0.296822
vt 0.990000 0.250000
vt 0.985388 0.203178
vt 0.971731 0.158156
vt 0.949553 0.116663
vt 0.919706 0.080294
vt 0.883337 0.050447
vt 0.841844 0.028269
vt 0.796822 0.014612
vt 0.750000 0.010000
vt 0.703178 0.014612
vt 0.658156 0.028269
vt 0.616663 0.050447
vt 0.580294 0.080294
vt 0.550447 0.116663
vt 0.528269 0.158156
vt 0.514612 0.203178
vt 0.510000 0.250000
vt 0.514612 0.296822
vt 0.528269 0.341844
vt 0.550447 0.383337
vt 0.580294 0.419706
vt 0.616663 0.449553
vt 0.658156 0.471731
vt 0.375000 0.000000
vt 0.625000 0.000000
vt 0.625000 0.250000
vt 0.375000 0.250000
vt 0.625000 0.500000
vt 0.625000 0.500000
vt 0.625000 0.500000
vt 0.625000 0.500000
vt 0.375000 0.500000
vt 0.625000 0.750000
vt 0.375000 0.750000
vt 0.375000 0.958689
vt 0.625000 0.958689
vt 0.625000 1.000000
vt 0.375000 1.000000
vt 0.375000 0.500000
vt 0.375000 0.750000
vt 0.833689 0.500000
vt 0.875000 0.500000
vt 0.875000 0.750000
vt 0.833689 0.750000
vt 0.625000 0.750000
vt 0.166311 0.500000
vt 0.166311 0.750000
vt 0.375000 0.291311
vt 0.625000 0.291311
vt 0.625000 0.250000
vt 0.375000 0.250000
vt 0.125000 0.500000
vt 0.125000 0.750000
vt 0.431108 0.889126
vt 0.587358 0.889126
vt 0.587358 0.819563
vt 0.431108 0.819563
vt 0.625000 0.291311
vt 0.375000 0.291311
vt 0.125000 0.500000
vt 0.166311 0.500000
vt 0.833689 0.500000
vt 0.875000 0.500000
vt 0.375000 0.500000
vt 0.375000 0.500000
vt 0.625000 0.000000
vt 0.625000 0.250000
vt 0.375000 0.250000
vt 0.375000 0.000000
vt 0.625000 0.250000
vt 0.375000 0.250000
vt 0.375000 0.500000
vt 0.625000 0.500000
vt 0.625000 0.750000
vt 0.375000 0.750000
vt 0.125000 0.750000
vt 0.125000 0.500000
vt 0.875000 0.500000
vt 0.875000 0.750000
vt 0.875000 0.500000
vt 0.875000 0.500000
vt 0.625000 0.500000
vt 0.625000 0.500000
vt 0.375000 0.500000
vt 0.125000 0.500000
vt 0.625000 0.250000
vt 0.375000 0.250000
vt 0.375000 0.500000
vt 0.125000 0.500000
vt 0.375000 0.000000
vt 0.625000 0.000000
vt 0.625000 0.250000
vt 0.375000 0.250000
vt 0.403571 0.333333
vt 0.625000 0.500000
vt 0.375000 0.500000
vt 0.403571 0.416667
vt 0.582143 0.416667
vt 0.582143 0.333333
vt 0.625000 0.750000
vt 0.375000 0.750000
vt 0.625000 1.000000
vt 0.375000 1.000000
vt 0.309185 0.683610
vt 0.125000 0.750000
vt 0.125000 0.500000
vt 0.190815 0.566390
vt 0.180711 0.578702
vt 0.173010 0.593110
vt 0.168268 0.608742
vt 0.166667 0.625000
vt 0.168268 0.641258
vt 0.173010 0.656890
vt 0.180711 0.671298
vt 0.191074 0.683926
vt 0.203702 0.694289
vt 0.218110 0.701990
vt 0.233742 0.706732
vt 0.250000 0.708333
vt 0.266258 0.706732
vt 0.281890 0.701990
vt 0.296297 0.694289
vt 0.308926 0.683926
vt 0.319289 0.671298
vt 0.326990 0.656890
vt 0.331732 0.641258
vt 0.333333 0.625000
vt 0.331732 0.608742
vt 0.326990 0.593110
vt 0.319289 0.578703
vt 0.308926 0.566074
vt 0.296298 0.555711
vt 0.281890 0.548010
vt 0.266258 0.543268
vt 0.250000 0.541667
vt 0.233743 0.543268
vt 0.218110 0.548010
vt 0.203703 0.555711
vt 0.191074 0.566074
vt 0.875000 0.500000
vt 0.875000 0.750000
vn 0.0980 0.0000 -0.9952
vn 0.2903 0.0000 -0.9569
vn 0.4714 0.0000 -0.8819
vn 0.6344 0.0000 -0.7730
vn 0.7730 0.0000 -0.6344
vn 0.8819 0.0000 -0.4714
vn 0.9569 0.0000 -0.2903
vn 0.9952 0.0000 -0.0980
vn 0.9952 0.0000 0.0980
vn 0.9569 0.0000 0.2903
vn 0.8819 0.0000 0.4714
vn 0.7730 0.0000 0.6344
vn 0.6344 0.0000 0.7730
vn 0.4714 0.0000 0.8819
vn 0.2903 0.0000 0.9569
vn 0.0980 0.0000 0.9952
vn -0.0980 0.0000 0.9952
vn -0.2903 0.0000 0.9569
vn -0.4714 0.0000 0.8819
vn -0.6344 0.0000 0.7730
vn -0.7730 0.0000 0.6344
vn -0.8819 0.0000 0.4714
vn -0.9569 0.0000 0.2903
vn -0.9952 0.0000 0.0980
vn -0.9952 0.0000 -0.0980
vn -0.9569 0.0000 -0.2903
vn -0.8819 0.0000 -0.4714
vn -0.7730 -0.0000 -0.6344
vn -0.6344 0.0000 -0.7730
vn -0.4714 0.0000 -0.8819
vn -0.2903 0.0000 -0.9569
vn -0.0980 0.0000 -0.9952
vn 0.0000 -1.0000 0.0000
vn -1.0000 0.0000 0.0000
vn 0.0000 1.0000 0.0000
vn 1.0000 0.0000 0.0000
vn 0.0000 0.0000 1.0000
vn 0.0000 0.0000 -1.0000
vn 0.0000 -0.7984 -0.6021
vn 0.0000 0.7984 0.6021
usemtl None
s off
f 2/1/1 1/2/1 81/3/1 82/4/1
f 3/5/2 2/1/2 82/4/2 84/6/2
f 4/7/3 3/5/3 84/6/3 86/8/3
f 5/9/4 4/7/4 86/8/4 88/10/4
f 90/11/5 6/12/5 5/9/5 88/10/5
f 92/13/6 7/14/6 6/12/6 90/11/6
f 94/15/7 8/16/7 7/14/7 92/13/7
f 96/17/8 9/18/8 8/16/8 94/15/8
f 98/19/9 10/20/9 9/18/9 96/17/9
f 100/21/10 11/22/10 10/20/10 98/19/10
f 102/23/11 12/24/11 11/22/11 100/21/11
f 105/25/12 13/26/12 12/24/12 102/23/12 103/27/12
f 108/28/13 14/29/13 13/26/13 105/25/13
f 110/30/14 15/31/14 14/29/14 108/28/14
f 111/32/15 16/33/15 15/31/15 110/30/15
f 113/34/16 17/35/16 16/33/16 111/32/16
f 83/36/17 18/37/17 17/35/17 113/34/17
f 85/38/18 19/39/18 18/37/18 83/36/18
f 87/40/19 20/41/19 19/39/19 85/38/19
f 89/42/20 21/43/20 20/41/20 87/40/20
f 22/44/21 21/43/21 89/42/21 91/45/21
f 23/46/22 22/44/22 91/45/22 93/47/22
f 24/48/23 23/46/23 93/47/23 95/49/23
f 25/50/24 24/48/24 95/49/24 97/51/24
f 26/52/25 25/50/25 97/51/25 99/53/25
f 27/54/26 26/52/26 99/53/26 101/55/26
f 28/56/27 27/54/27 101/55/27 104/57/27
f 29/58/28 28/56/28 104/57/28 106/59/28 107/60/28
f 30/61/29 29/58/29 107/60/29 109/62/29
f 31/63/30 30/61/30 109/62/30 112/64/30
f 32/65/31 31/63/31 112/64/31 114/66/31
f 1/67/32 32/65/32 114/66/32 81/68/32
f 32/69/33 1/70/33 2/71/33 3/72/33 4/73/33 5/74/33 6/75/33 7/76/33 8/77/33 9/78/33 10/79/33 11/80/33 12/81/33 13/82/33 14/83/33 15/84/33 16/85/33 17/86/33 18/87/33 19/88/33 20/89/33 21/90/33 22/91/33 23/92/33 24/93/33 25/94/33 26/95/33 27/96/33 28/97/33 29/98/33 30/99/33 31/100/33
f 33/101/34 34/102/34 36/103/34 35/104/34
f 42/105/35 40/106/35 54/107/35 53/108/35
f 39/109/36 40/106/36 38/110/36 37/111/36
f 48/112/37 46/113/37 34/114/37 33/115/37
f 41/116/33 39/109/33 37/111/33 43/117/33
f 47/118/35 36/119/35 34/120/35 46/121/35
f 40/106/35 42/105/35 44/122/35 38/110/35
f 45/123/33 41/116/33 43/117/33 48/124/33
f 37/111/37 38/110/37 44/122/37 43/117/37
f 45/125/38 47/126/38 42/105/38 41/116/38
f 35/104/34 36/103/34 49/127/34 50/128/34
f 35/129/33 45/123/33 48/124/33 33/130/33
f 42/105/35 47/118/35 46/121/35 44/122/35
f 67/131/37 65/132/37 46/113/37 48/112/37 43/117/37 44/122/37 66/133/37 68/134/37
f 66/133/37 44/122/37 46/113/37 65/132/37
f 50/128/38 49/127/38 52/135/38 51/136/38
f 45/123/33 35/129/33 50/137/33 51/138/33
f 47/126/36 45/125/36 51/136/36 52/135/36
f 36/119/35 47/118/35 52/139/35 49/140/35
f 56/141/38 53/108/38 54/107/38 55/142/38
f 39/109/33 41/116/33 56/141/33 55/142/33
f 41/116/34 42/105/34 53/108/34 56/141/34
f 40/106/36 39/109/36 55/142/36 54/107/36
f 77/143/34 58/144/34 57/145/34 78/146/34
f 57/145/34 58/144/34 61/147/34 62/148/34
f 59/149/36 60/150/36 79/151/36 80/152/36
f 78/153/33 57/154/33 59/149/33 80/152/33
f 79/151/35 60/150/35 58/155/35 77/156/35
f 65/157/35 61/158/35 64/159/35 66/160/35
f 60/150/36 59/149/36 63/161/36 64/159/36
f 59/149/39 57/154/39 62/162/39 63/161/39
f 58/155/40 60/150/40 64/159/40 61/158/40
f 62/148/34 61/147/34 65/163/34 67/164/34
f 64/159/36 63/161/36 68/165/36 66/160/36
f 63/161/33 62/162/33 67/166/33 68/165/33
f 69/167/34 70/168/34 72/169/34 71/170/34
f 78/171/38 71/170/38 72/169/38 76/172/38 75/173/38 80/174/38 79/175/38 77/176/38
f 80/174/38 75/173/38 71/170/38 78/171/38
f 75/173/36 76/172/36 74/177/36 73/178/36
f 73/178/37 74/177/37 70/179/37 69/180/37
f 103/181/33 73/178/33 69/182/33 71/183/33 106/184/33 104/185/33 101/186/33 99/187/33 97/188/33 95/189/33 93/190/33 91/191/33 89/192/33 87/193/33 85/194/33 83/195/33 113/196/33 111/197/33 110/198/33 108/199/33 105/200/33
f 106/184/33 71/183/33 75/173/33 73/178/33 103/181/33 102/201/33 100/202/33 98/203/33 96/204/33 94/205/33 92/206/33 90/207/33 88/208/33 86/209/33 84/210/33 82/211/33 81/212/33 114/213/33 112/214/33 109/215/33 107/216/33
f 76/172/35 72/217/35 70/218/35 74/177/35
